HIERARCHY
ROOT Hips
{
  OFFSET 5.80788e-005 67.184 3.4734
  CHANNELS 6 Xposition Yposition Zposition Zrotation Xrotation Yrotation
  JOINT Chest
  {
    OFFSET 0 8.7983 -4.7612
    CHANNELS 6 Xposition Yposition Zposition Zrotation Xrotation Yrotation
    JOINT Chest2
    {
      OFFSET 0 8.0291 0.4195
      CHANNELS 6 Xposition Yposition Zposition Zrotation Xrotation Yrotation
      JOINT Chest3
      {
        OFFSET 0 9.9351 -2.2114
        CHANNELS 6 Xposition Yposition Zposition Zrotation Xrotation Yrotation
        JOINT Neck
        {
          OFFSET 0 22.3885 -0.4656
          CHANNELS 6 Xposition Yposition Zposition Zrotation Xrotation Yrotation
          JOINT Head
          {
            OFFSET -0.0001 12.643 3.4389
            CHANNELS 6 Xposition Yposition Zposition Zrotation Xrotation Yrotation
            End Site
            {
              OFFSET 0.0001 17.6655 0.5274
            }
          }
        }
        JOINT LeftCollar
        {
          OFFSET 2.2603 21.606 7.4023
          CHANNELS 6 Xposition Yposition Zposition Zrotation Xrotation Yrotation
          JOINT LeftShoulder
          {
            OFFSET 13.5163 -1.1332 -5.0146
            CHANNELS 6 Xposition Yposition Zposition Zrotation Xrotation Yrotation
            JOINT LeftElbow
            {
              OFFSET -0.0995 -28.05 -0.2431
              CHANNELS 6 Xposition Yposition Zposition Zrotation Xrotation Yrotation
              JOINT LeftWrist
              {
                OFFSET 0.0679 -23.3996 -0.1402
                CHANNELS 6 Xposition Yposition Zposition Zrotation Xrotation Yrotation
                JOINT LeftFinger1
                {
                  OFFSET 0.7932 -9.069 2.5189
                  CHANNELS 6 Xposition Yposition Zposition Zrotation Xrotation Yrotation
                  JOINT LeftFinger11
                  {
                    OFFSET -0.8272 -3.3923 0.5977
                    CHANNELS 6 Xposition Yposition Zposition Zrotation Xrotation Yrotation
                    JOINT LeftFinger12
                    {
                      OFFSET -0.5649 -2.3158 0.4082
                      CHANNELS 6 Xposition Yposition Zposition Zrotation Xrotation Yrotation
                      End Site
                      {
                        OFFSET -0.4919 -1.6479 0.2673
                      }
                    }
                  }
                }
                JOINT LeftFinger2
                {
                  OFFSET 0.9159 -9.2044 0.2193
                  CHANNELS 6 Xposition Yposition Zposition Zrotation Xrotation Yrotation
                  JOINT LeftFinger21
                  {
                    OFFSET 0.0117 -4.1944 -0.0248
                    CHANNELS 6 Xposition Yposition Zposition Zrotation Xrotation Yrotation
                    JOINT LeftFinger22
                    {
                      OFFSET 0.0071 -2.3249 -0.0142
                      CHANNELS 6 Xposition Yposition Zposition Zrotation Xrotation Yrotation
                      End Site
                      {
                        OFFSET -0.1475 -2.0882 0.0028
                      }
                    }
                  }
                }
                JOINT LeftFinger3
                {
                  OFFSET 0.6113 -8.7231 -2.0637
                  CHANNELS 6 Xposition Yposition Zposition Zrotation Xrotation Yrotation
                  JOINT LeftFinger31
                  {
                    OFFSET -0.1927 -3.8059 -0.2383
                    CHANNELS 6 Xposition Yposition Zposition Zrotation Xrotation Yrotation
                    JOINT LeftFinger32
                    {
                      OFFSET -0.1091 -2.1688 -0.1362
                      CHANNELS 6 Xposition Yposition Zposition Zrotation Xrotation Yrotation
                      End Site
                      {
                        OFFSET -0.2358 -1.9176 -0.0906
                      }
                    }
                  }
                }
                JOINT LeftFinger4
                {
                  OFFSET -0.6151 -8.0947 -3.5641
                  CHANNELS 6 Xposition Yposition Zposition Zrotation Xrotation Yrotation
                  JOINT LeftFinger41
                  {
                    OFFSET -0.4882 -2.341 -0.6462
                    CHANNELS 6 Xposition Yposition Zposition Zrotation Xrotation Yrotation
                    JOINT LeftFinger42
                    {
                      OFFSET -0.3575 -1.7167 -0.4742
                      CHANNELS 6 Xposition Yposition Zposition Zrotation Xrotation Yrotation
                      End Site
                      {
                        OFFSET -0.4187 -1.5237 -0.3496
                      }
                    }
                  }
                }
                JOINT LeftFinger0
                {
                  OFFSET -1.42 -1.8761 1.4223
                  CHANNELS 6 Xposition Yposition Zposition Zrotation Xrotation Yrotation
                  JOINT LeftFinger01
                  {
                    OFFSET -1.1471 -3.4929 2.6334
                    CHANNELS 6 Xposition Yposition Zposition Zrotation Xrotation Yrotation
                    JOINT LeftFinger02
                    {
                      OFFSET -0.823 -2.3 1.6571
                      CHANNELS 6 Xposition Yposition Zposition Zrotation Xrotation Yrotation
                      End Site
                      {
                        OFFSET -0.5822 -1.6914 1.1582
                      }
                    }
                  }
                }
              }
            }
          }
        }
        JOINT RightCollar
        {
          OFFSET -2.2603 21.606 7.4023
          CHANNELS 6 Xposition Yposition Zposition Zrotation Xrotation Yrotation
          JOINT RightShoulder
          {
            OFFSET -13.5187 -1.1334 -5.0155
            CHANNELS 6 Xposition Yposition Zposition Zrotation Xrotation Yrotation
            JOINT RightElbow
            {
              OFFSET 0.0994 -28.0499 -0.2431
              CHANNELS 6 Xposition Yposition Zposition Zrotation Xrotation Yrotation
              JOINT RightWrist
              {
                OFFSET -0.0679 -23.3996 -0.1402
                CHANNELS 6 Xposition Yposition Zposition Zrotation Xrotation Yrotation
                JOINT RightFinger1
                {
                  OFFSET -0.7932 -9.0691 2.5189
                  CHANNELS 6 Xposition Yposition Zposition Zrotation Xrotation Yrotation
                  JOINT RightFinger11
                  {
                    OFFSET 0.8272 -3.3923 0.5977
                    CHANNELS 6 Xposition Yposition Zposition Zrotation Xrotation Yrotation
                    JOINT RightFinger12
                    {
                      OFFSET 0.565 -2.3158 0.4082
                      CHANNELS 6 Xposition Yposition Zposition Zrotation Xrotation Yrotation
                      End Site
                      {
                        OFFSET 0.4919 -1.6479 0.2673
                      }
                    }
                  }
                }
                JOINT RightFinger2
                {
                  OFFSET -0.916 -9.2044 0.2193
                  CHANNELS 6 Xposition Yposition Zposition Zrotation Xrotation Yrotation
                  JOINT RightFinger21
                  {
                    OFFSET -0.0117 -4.1944 -0.0248
                    CHANNELS 6 Xposition Yposition Zposition Zrotation Xrotation Yrotation
                    JOINT RightFinger22
                    {
                      OFFSET -0.0071 -2.3249 -0.0142
                      CHANNELS 6 Xposition Yposition Zposition Zrotation Xrotation Yrotation
                      End Site
                      {
                        OFFSET 0.1475 -2.0882 0.0028
                      }
                    }
                  }
                }
                JOINT RightFinger3
                {
                  OFFSET -0.6113 -8.7231 -2.0637
                  CHANNELS 6 Xposition Yposition Zposition Zrotation Xrotation Yrotation
                  JOINT RightFinger31
                  {
                    OFFSET 0.1927 -3.8059 -0.2383
                    CHANNELS 6 Xposition Yposition Zposition Zrotation Xrotation Yrotation
                    JOINT RightFinger32
                    {
                      OFFSET 0.1091 -2.1688 -0.1362
                      CHANNELS 6 Xposition Yposition Zposition Zrotation Xrotation Yrotation
                      End Site
                      {
                        OFFSET 0.2358 -1.9176 -0.0906
                      }
                    }
                  }
                }
                JOINT RightFinger4
                {
                  OFFSET 0.6151 -8.0947 -3.564
                  CHANNELS 6 Xposition Yposition Zposition Zrotation Xrotation Yrotation
                  JOINT RightFinger41
                  {
                    OFFSET 0.4882 -2.341 -0.6462
                    CHANNELS 6 Xposition Yposition Zposition Zrotation Xrotation Yrotation
                    JOINT RightFinger42
                    {
                      OFFSET 0.3574 -1.7166 -0.4742
                      CHANNELS 6 Xposition Yposition Zposition Zrotation Xrotation Yrotation
                      End Site
                      {
                        OFFSET 0.4187 -1.5237 -0.3496
                      }
                    }
                  }
                }
                JOINT RightFinger0
                {
                  OFFSET 1.4199 -1.8761 1.4221
                  CHANNELS 6 Xposition Yposition Zposition Zrotation Xrotation Yrotation
                  JOINT RightFinger01
                  {
                    OFFSET 1.1472 -3.4929 2.6336
                    CHANNELS 6 Xposition Yposition Zposition Zrotation Xrotation Yrotation
                    JOINT RightFinger02
                    {
                      OFFSET 0.8229 -2.3 1.6571
                      CHANNELS 6 Xposition Yposition Zposition Zrotation Xrotation Yrotation
                      End Site
                      {
                        OFFSET 0.5822 -1.6914 1.1582
                      }
                    }
                  }
                }
              }
            }
          }
        }
      }
    }
  }
  JOINT RightHip
  {
    OFFSET -9.412 3.9771 -0.7758
    CHANNELS 6 Xposition Yposition Zposition Zrotation Xrotation Yrotation
    JOINT RightKnee
    {
      OFFSET -0.7531 -40.938 0
      CHANNELS 6 Xposition Yposition Zposition Zrotation Xrotation Yrotation
      JOINT RightAnkle
      {
        OFFSET 0 -40.1986 0
        CHANNELS 6 Xposition Yposition Zposition Zrotation Xrotation Yrotation
        JOINT RightToe
        {
          OFFSET 0 -4.4182 9.239
          CHANNELS 6 Xposition Yposition Zposition Zrotation Xrotation Yrotation
          End Site
          {
            OFFSET 0 0 6.1981
          }
        }
      }
    }
  }
  JOINT LeftHip
  {
    OFFSET 9.4119 3.9773 -0.7758
    CHANNELS 6 Xposition Yposition Zposition Zrotation Xrotation Yrotation
    JOINT LeftKnee
    {
      OFFSET 0.7532 -40.9383 0
      CHANNELS 6 Xposition Yposition Zposition Zrotation Xrotation Yrotation
      JOINT LeftAnkle
      {
        OFFSET 0 -40.1986 0
        CHANNELS 6 Xposition Yposition Zposition Zrotation Xrotation Yrotation
        JOINT LeftToe
        {
          OFFSET 0 -4.4182 9.239
          CHANNELS 6 Xposition Yposition Zposition Zrotation Xrotation Yrotation
          End Site
          {
            OFFSET 0 0 6.1981
          }
        }
      }
    }
  }
}
MOTION
Frames:	4
Frame Time:	0.0333333
5.80788e-005 67.184 3.4734 0 0 -0 0 8.7983 -4.7612 0 0 -0 0 8.0291 0.4195 0 0 -0 0 9.9351 -2.2114 0 0 -0 0 22.3885 -0.4656 0 0 -0 -0.0001 12.643 3.4389 0 0 -0 2.2603 21.606 7.4023 0 0 -12.5014 13.5163 -1.1332 -5.0146 88.1196 14.2451 10.6914 -0.0995 -28.05 -0.2431 -0.00160068 -0.00239207 0.000740045 0.0679 -23.3996 -0.1402 -8.4365e-005 7.00714e-005 -9.52055e-007 0.7932 -9.069 2.5189 9.93923e-017 -1.98785e-016 -1.59028e-015 -0.8272 -3.3923 0.5977 9.93923e-017 -5.96354e-016 -1.59028e-015 -0.5649 -2.3158 0.4082 -9.93923e-017 -5.96354e-016 -1.59028e-015 0.9159 -9.2044 0.2193 9.93923e-017 -1.98785e-016 -1.59028e-015 0.0117 -4.1944 -0.0248 -0.0128176 0.00232552 8.52707e-005 0.0071 -2.3249 -0.0142 9.93923e-017 5.96354e-016 -0 0.6113 -8.7231 -2.0637 9.93923e-017 -1.98785e-016 -1.59028e-015 -0.1927 -3.8059 -0.2383 -0.0160551 0.00299681 0.000857156 -0.1091 -2.1688 -0.1362 -2.48481e-016 0 3.18055e-015 -0.6151 -8.0947 -3.5641 9.93923e-017 -1.98785e-016 -1.59028e-015 -0.4882 -2.341 -0.6462 -0.0125865 0.0031206 0.00282719 -0.3575 -1.7167 -0.4742 0 1.98785e-016 -0 -1.42 -1.8761 1.4223 9.93923e-017 -1.98785e-016 -1.59028e-015 -1.1471 -3.4929 2.6334 9.93923e-017 -5.96354e-016 -1.59028e-015 -0.823 -2.3 1.6571 -9.93923e-017 -5.96354e-016 -1.59028e-015 -2.2603 21.606 7.4023 -0.865644 0.16582 7.03859 -13.5187 -1.1334 -5.0155 -88.0329 10.2057 -10.5567 0.0994 -28.0499 -0.2431 0.0015593 -0.00248883 -0.000788628 -0.0679 -23.3996 -0.1402 7.87605e-005 4.10553e-005 1.24965e-005 -0.7932 -9.0691 2.5189 -3.97569e-016 -7.95139e-016 3.18055e-015 0.8272 -3.3923 0.5977 -1.98785e-016 -3.97569e-016 3.18055e-015 0.565 -2.3158 0.4082 -1.98785e-016 0 3.18055e-015 -0.916 -9.2044 0.2193 -3.97569e-016 -7.95139e-016 3.18055e-015 -0.0117 -4.1944 -0.0248 0.0129473 0.00231697 -8.70038e-005 -0.0071 -2.3249 -0.0142 9.93923e-017 -7.95139e-016 1.59028e-015 -0.6113 -8.7231 -2.0637 -3.97569e-016 -7.95139e-016 3.18055e-015 0.1927 -3.8059 -0.2383 0.0163314 0.00303369 -0.000872333 0.1091 -2.1688 -0.1362 3.97569e-016 7.95139e-016 -3.18055e-015 0.6151 -8.0947 -3.564 -3.97569e-016 -7.95139e-016 3.18055e-015 0.4882 -2.341 -0.6462 0.0145763 0.00367772 -0.00326275 0.3574 -1.7166 -0.4742 9.93923e-017 -3.97569e-016 -0 1.4199 -1.8761 1.4221 -3.97569e-016 -7.95139e-016 3.18055e-015 1.1472 -3.4929 2.6336 -1.98785e-016 -3.97569e-016 3.18055e-015 0.8229 -2.3 1.6571 -1.98785e-016 0 3.18055e-015 -9.412 3.9771 -0.7758 3.42485 1.36937 -0.0640303 -0.7531 -40.938 0 0.000136572 0.69354 0.00145564 1.77636e-015 -40.1986 -1.11022e-016 -3.42573 -2.06297 -0.0607933 8.88178e-016 -4.4182 9.239 -3.19502e-024 0 -1.48106e-024 9.4119 3.9773 -0.7758 -3.42498 1.36123 0.0639712 0.7532 -40.9383 2.22045e-016 -6.769e-005 0.712612 -0.0012277 8.88179e-016 -40.1986 0 3.42582 -2.07388 0.0612819 -8.88178e-016 -4.4182 9.239 2.55305e-023 0 -2.31416e-026 
-13.6087 31.8477 3.66078 -90 -4.76632e-008 -2.83635e-008 -3.55271e-015 8.7983 -4.7612 2.7842 2.19393 0.215118 0 8.0291 0.4195 5.56625 4.39571 0.3236 -3.55271e-015 9.9351 -2.2114 5.56631 4.39572 0.323603 3.55271e-015 22.3885 -0.4656 4.82087 33.9024 -2.69412 -0.0001 12.643 3.4389 -26.3478 -8.98111 -11.4225 2.2603 21.606 7.4023 -3.87845 -0.96942 3.45137 13.5163 -1.1332 -5.0146 -7.25616 -51.3516 -86.3864 -0.0995 -28.05 -0.2431 -23.7924 -62.9649 5.84004 0.0679 -23.3996 -0.1402 -53.8746 -25.3325 3.17879 0.7932 -9.069 2.5189 3.18055e-015 -1.59028e-015 -4.77083e-015 -0.8272 -3.3923 0.5977 1.59028e-014 2.38542e-015 -4.77083e-015 -0.5649 -2.3158 0.4082 3.18055e-015 3.97569e-015 -4.77083e-015 0.9159 -9.2044 0.2193 3.18055e-015 -1.59028e-015 -4.77083e-015 0.0117 -4.1944 -0.0248 -0.0128458 0.00234267 9.17104e-005 0.0071 -2.3249 -0.0142 -0 -7.95139e-016 -0 0.6113 -8.7231 -2.0637 3.18055e-015 -1.59028e-015 -4.77083e-015 -0.1927 -3.8059 -0.2383 -0.0160484 0.00300584 0.000859734 -0.1091 -2.1688 -0.1362 4.41391e-032 -1.59028e-015 1.59028e-015 -0.6151 -8.0947 -3.5641 3.18055e-015 -1.59028e-015 -4.77083e-015 -0.4882 -2.341 -0.6462 -0.0126375 0.00313395 0.00284263 -0.3575 -1.7167 -0.4742 3.18055e-015 7.95139e-016 -0 -1.42 -1.8761 1.4223 3.18055e-015 -1.59028e-015 -4.77083e-015 -1.1471 -3.4929 2.6334 1.59028e-014 2.38542e-015 -4.77083e-015 -0.823 -2.3 1.6571 3.18055e-015 3.97569e-015 -4.77083e-015 -2.2603 21.606 7.4023 -0.865667 0.165813 7.03859 -13.5187 -1.1334 -5.0155 -12.3165 -47.4455 56.1019 0.0994 -28.0499 -0.2431 22.4052 -60.3726 -11.733 -0.0679 -23.3996 -0.1402 41.2289 3.42655 -3.34809 -0.7932 -9.0691 2.5189 6.36111e-015 -7.95139e-016 1.59028e-015 0.8272 -3.3923 0.5977 -9.31375e-006 2.347e-006 6.83672e-007 0.565 -2.3158 0.4082 3.18055e-015 -1.98785e-015 -0 -0.916 -9.2044 0.2193 6.36111e-015 -7.95139e-016 1.59028e-015 -0.0117 -4.1944 -0.0248 0.0129209 0.00231465 -8.2639e-005 -0.0071 -2.3249 -0.0142 6.36111e-015 1.98785e-015 -1.59028e-015 -0.6113 -8.7231 -2.0637 6.36111e-015 -7.95139e-016 1.59028e-015 0.1927 -3.8059 -0.2383 0.0163064 0.00302765 -0.000865354 0.1091 -2.1688 -0.1362 3.18055e-015 0 2.38542e-015 0.6151 -8.0947 -3.564 6.36111e-015 -7.95139e-016 1.59028e-015 0.4882 -2.341 -0.6462 0.0145594 0.00367947 -0.00325319 0.3574 -1.7166 -0.4742 3.18055e-015 2.78299e-015 -2.38542e-015 1.4199 -1.8761 1.4221 6.36111e-015 -7.95139e-016 1.59028e-015 1.1472 -3.4929 2.6336 -9.31375e-006 2.347e-006 6.83672e-007 0.8229 -2.3 1.6571 3.18055e-015 -1.98785e-015 -0 -9.412 3.9771 -0.7758 20.1322 -64.3221 11.8974 -0.7531 -40.938 1.77636e-015 171.195 66.8946 -174.877 0 -40.1986 -7.10543e-015 -3.26235 -0.438929 -0.923053 0 -4.4182 9.239 1.09948e-006 3.3169e-006 -1.53473e-006 9.4119 3.9773 -0.7758 -7.43077 -55.5569 -8.59757 0.7532 -40.9383 -6.21725e-015 -175.253 74.5375 177.805 0 -40.1986 7.10543e-015 2.06639 11.3931 0.386797 -3.55271e-015 -4.4182 9.239 -4.41391e-032 -3.18055e-015 -7.95139e-016 
-13.6087 31.8477 3.66078 -90 -1.01902e-007 3.02658e-009 3.55271e-015 8.7983 -4.7612 2.7842 2.19393 0.215118 7.10543e-015 8.0291 0.4195 5.56625 4.39571 0.323599 0 9.9351 -2.2114 5.56631 4.39572 0.323603 0 22.3885 -0.4656 4.82085 33.9024 -2.69411 -0.0001 12.643 3.4389 -26.3478 -8.98111 -11.4225 2.2603 21.606 7.4023 -3.87845 -0.969417 3.45138 13.5163 -1.1332 -5.0146 -7.2562 -51.3517 -86.3865 -0.0995 -28.05 -0.2431 -23.7925 -62.9649 5.84001 0.0679 -23.3996 -0.1402 -53.8745 -25.3325 3.17884 0.7932 -9.069 2.5189 -3.18055e-015 7.95139e-016 -1.59028e-015 -0.8272 -3.3923 0.5977 -6.36111e-015 0 -1.59028e-015 -0.5649 -2.3158 0.4082 6.36111e-015 1.59028e-015 -0 0.9159 -9.2044 0.2193 -3.18055e-015 7.95139e-016 -1.59028e-015 0.0117 -4.1944 -0.0248 -0.0128069 0.00234339 9.30798e-005 0.0071 -2.3249 -0.0142 -6.36111e-015 7.95139e-016 1.59028e-015 0.6113 -8.7231 -2.0637 -3.18055e-015 7.95139e-016 -1.59028e-015 -0.1927 -3.8059 -0.2383 -0.0161068 0.003014 0.0008682 -0.1091 -2.1688 -0.1362 7.49462e-006 1.68452e-006 6.82203e-007 -0.6151 -8.0947 -3.5641 -3.18055e-015 7.95139e-016 -1.59028e-015 -0.4882 -2.341 -0.6462 -0.0125693 0.00312348 0.00282762 -0.3575 -1.7167 -0.4742 -6.36111e-015 1.59028e-015 -0 -1.42 -1.8761 1.4223 -3.18055e-015 7.95139e-016 -1.59028e-015 -1.1471 -3.4929 2.6334 -6.36111e-015 0 -1.59028e-015 -0.823 -2.3 1.6571 6.36111e-015 1.59028e-015 -0 -2.2603 21.606 7.4023 -0.865667 0.165815 7.03859 -13.5187 -1.1334 -5.0155 -12.3165 -47.4455 56.1019 0.0994 -28.0499 -0.2431 22.4051 -60.3726 -11.733 -0.0679 -23.3996 -0.1402 41.2289 3.42656 -3.34808 -0.7932 -9.0691 2.5189 -6.36111e-015 7.95139e-016 7.95139e-016 0.8272 -3.3923 0.5977 -3.18055e-015 -3.97569e-016 7.95139e-016 0.565 -2.3158 0.4082 0 2.78299e-015 -0 -0.916 -9.2044 0.2193 -6.36111e-015 7.95139e-016 7.95139e-016 -0.0117 -4.1944 -0.0248 0.0129491 0.00232498 -7.35538e-005 -0.0071 -2.3249 -0.0142 -3.18055e-015 -3.18055e-015 1.59028e-015 -0.6113 -8.7231 -2.0637 -6.36111e-015 7.95139e-016 7.95139e-016 0.1927 -3.8059 -0.2383 0.0163278 0.00304194 -0.000870715 0.1091 -2.1688 -0.1362 -3.18055e-015 6.75868e-015 7.95139e-016 0.6151 -8.0947 -3.564 -6.36111e-015 7.95139e-016 7.95139e-016 0.4882 -2.341 -0.6462 0.0146102 0.00368048 -0.00327229 0.3574 -1.7166 -0.4742 -6.36111e-015 1.98785e-015 -1.59028e-015 1.4199 -1.8761 1.4221 -6.36111e-015 7.95139e-016 7.95139e-016 1.1472 -3.4929 2.6336 -3.18055e-015 -3.97569e-016 7.95139e-016 0.8229 -2.3 1.6571 0 2.78299e-015 -0 -9.412 3.9771 -0.7758 20.1322 -64.3221 11.8975 -0.7531 -40.938 0 171.194 66.8946 -174.877 -7.10543e-015 -40.1986 7.10543e-015 -3.26235 -0.438906 -0.923052 0 -4.4182 9.239 1.98785e-016 3.18055e-015 1.98785e-016 9.4119 3.9773 -0.7758 -7.43082 -55.5569 -8.59762 0.7532 -40.9383 9.76996e-015 -175.252 74.5375 177.804 -7.10543e-015 -40.1986 0 2.06643 11.3931 0.386811 3.55271e-015 -4.4182 9.239 0 3.18055e-015 -0 
-13.6087 31.8477 3.66078 -90 -1.01902e-007 3.02658e-009 3.55271e-015 8.7983 -4.7612 2.7842 2.19393 0.215118 7.10543e-015 8.0291 0.4195 5.56625 4.39571 0.323599 0 9.9351 -2.2114 5.56631 4.39572 0.323603 0 22.3885 -0.4656 4.82085 33.9024 -2.69411 -0.0001 12.643 3.4389 -26.3478 -8.98111 -11.4225 2.2603 21.606 7.4023 -3.87845 -0.969417 3.45138 13.5163 -1.1332 -5.0146 -7.2562 -51.3517 -86.3865 -0.0995 -28.05 -0.2431 -23.7925 -62.9649 5.84001 0.0679 -23.3996 -0.1402 -53.8745 -25.3325 3.17884 0.7932 -9.069 2.5189 -3.18055e-015 7.95139e-016 -1.59028e-015 -0.8272 -3.3923 0.5977 -6.36111e-015 0 -1.59028e-015 -0.5649 -2.3158 0.4082 6.36111e-015 1.59028e-015 -0 0.9159 -9.2044 0.2193 -3.18055e-015 7.95139e-016 -1.59028e-015 0.0117 -4.1944 -0.0248 -0.0128069 0.00234339 9.30798e-005 0.0071 -2.3249 -0.0142 -6.36111e-015 7.95139e-016 1.59028e-015 0.6113 -8.7231 -2.0637 -3.18055e-015 7.95139e-016 -1.59028e-015 -0.1927 -3.8059 -0.2383 -0.0161068 0.003014 0.0008682 -0.1091 -2.1688 -0.1362 7.49462e-006 1.68452e-006 6.82203e-007 -0.6151 -8.0947 -3.5641 -3.18055e-015 7.95139e-016 -1.59028e-015 -0.4882 -2.341 -0.6462 -0.0125693 0.00312348 0.00282762 -0.3575 -1.7167 -0.4742 -6.36111e-015 1.59028e-015 -0 -1.42 -1.8761 1.4223 -3.18055e-015 7.95139e-016 -1.59028e-015 -1.1471 -3.4929 2.6334 -6.36111e-015 0 -1.59028e-015 -0.823 -2.3 1.6571 6.36111e-015 1.59028e-015 -0 -2.2603 21.606 7.4023 -0.865667 0.165815 7.03859 -13.5187 -1.1334 -5.0155 -12.3165 -47.4455 56.1019 0.0994 -28.0499 -0.2431 22.4051 -60.3726 -11.733 -0.0679 -23.3996 -0.1402 41.2289 3.42656 -3.34808 -0.7932 -9.0691 2.5189 -6.36111e-015 7.95139e-016 7.95139e-016 0.8272 -3.3923 0.5977 -3.18055e-015 -3.97569e-016 7.95139e-016 0.565 -2.3158 0.4082 0 2.78299e-015 -0 -0.916 -9.2044 0.2193 -6.36111e-015 7.95139e-016 7.95139e-016 -0.0117 -4.1944 -0.0248 0.0129491 0.00232498 -7.35538e-005 -0.0071 -2.3249 -0.0142 -3.18055e-015 -3.18055e-015 1.59028e-015 -0.6113 -8.7231 -2.0637 -6.36111e-015 7.95139e-016 7.95139e-016 0.1927 -3.8059 -0.2383 0.0163278 0.00304194 -0.000870715 0.1091 -2.1688 -0.1362 -3.18055e-015 6.75868e-015 7.95139e-016 0.6151 -8.0947 -3.564 -6.36111e-015 7.95139e-016 7.95139e-016 0.4882 -2.341 -0.6462 0.0146102 0.00368048 -0.00327229 0.3574 -1.7166 -0.4742 -6.36111e-015 1.98785e-015 -1.59028e-015 1.4199 -1.8761 1.4221 -6.36111e-015 7.95139e-016 7.95139e-016 1.1472 -3.4929 2.6336 -3.18055e-015 -3.97569e-016 7.95139e-016 0.8229 -2.3 1.6571 0 2.78299e-015 -0 -9.412 3.9771 -0.7758 20.1322 -64.3221 11.8975 -0.7531 -40.938 0 171.194 66.8946 -174.877 -7.10543e-015 -40.1986 7.10543e-015 -3.26235 -0.438906 -0.923052 0 -4.4182 9.239 1.98785e-016 3.18055e-015 1.98785e-016 9.4119 3.9773 -0.7758 -7.43082 -55.5569 -8.59762 0.7532 -40.9383 9.76996e-015 -175.252 74.5375 177.804 -7.10543e-015 -40.1986 0 2.06643 11.3931 0.386811 3.55271e-015 -4.4182 9.239 0 3.18055e-015 -0 
